<mxfile host="app.diagrams.net" modified="2023-05-15T07:01:22.900Z" agent="Mozilla/5.0 (Macintosh; Intel Mac OS X 10_15_7) AppleWebKit/537.36 (KHTML, like Gecko) Chrome/105.0.0.0 Safari/537.36" version="21.3.0" etag="EMAjOhuHoZonvOFXY_Iv" type="github">
  <diagram name="Page-1" id="BLRtcdTJb8SwwHqnJfZ-">
    <mxGraphModel>
      <root>
        <mxCell id="0" />
        <mxCell id="1" parent="0" />
      </root>
    </mxGraphModel>
  </diagram>
</mxfile>
